<?xml version="1.0" standalone="no"?>
<!DOCTYPE svg PUBLIC "-//W3C//DTD SVG 20010904//EN"
 "http://www.w3.org/TR/2001/REC-SVG-20010904/DTD/svg10.dtd">
<svg version="1.0" xmlns="http://www.w3.org/2000/svg"
 width="400.000000pt" height="400.000000pt" viewBox="0 0 400.000000 400.000000"
 preserveAspectRatio="xMidYMid meet">
<metadata>
Created by potrace 1.14, written by Peter Selinger 2001-2017
</metadata>
<g transform="translate(0.000000,400.000000) scale(0.100000,-0.100000)"
fill="#000000" stroke="none">
<path d="M401 3863 c233 -238 314 -323 317 -338 2 -7 -6 -44 -17 -82 -11 -37
-27 -106 -36 -153 -9 -47 -19 -96 -21 -110 -5 -21 -10 -16 -42 45 -62 118
-115 182 -315 384 -178 179 -257 251 -279 251 -18 0 -6 -29 20 -45 24 -15 311
-301 418 -416 51 -55 94 -118 128 -189 15 -30 33 -67 41 -82 17 -34 55 -194
100 -424 34 -177 35 -185 35 -431 l0 -250 -33 -69 c-19 -38 -42 -87 -51 -109
-10 -22 -29 -64 -43 -93 -45 -98 -65 -146 -108 -267 -23 -66 -48 -132 -55
-148 -18 -37 -7 -43 30 -17 30 21 79 91 114 160 42 85 149 280 152 277 2 -2
13 -95 24 -208 31 -319 75 -585 125 -754 36 -122 115 -349 126 -360 16 -16 10
27 -12 85 -62 163 -130 526 -128 683 1 45 3 73 6 62 7 -31 34 -118 43 -140 5
-11 24 -56 42 -100 19 -44 56 -117 83 -162 51 -86 115 -159 115 -132 0 9 -10
24 -21 35 -84 75 -210 359 -246 552 -10 52 -20 82 -28 82 -19 0 -22 -32 -19
-181 2 -74 1 -129 -1 -124 -9 25 -45 272 -55 380 -6 66 -16 170 -23 230 -16
142 -15 788 2 950 20 208 62 417 113 570 35 104 103 255 115 255 4 0 41 -31
80 -69 90 -84 121 -102 134 -79 12 21 193 140 244 160 22 9 59 21 81 27 31 8
51 23 75 55 29 38 38 43 61 39 21 -4 37 3 70 30 64 51 101 67 181 76 97 12
249 50 267 67 13 13 13 18 -3 46 -10 17 -15 33 -13 36 10 9 267 -128 347 -186
209 -151 319 -256 404 -387 64 -98 120 -201 150 -280 11 -27 31 -70 44 -95 14
-25 46 -90 73 -144 45 -91 110 -190 262 -399 80 -110 488 -507 520 -507 18 0
-1 22 -59 69 -104 85 -355 339 -420 426 -33 44 -89 123 -124 175 -61 90 -77
118 -166 285 -21 39 -45 81 -53 95 -9 14 -44 84 -77 155 -118 250 -219 376
-438 547 -152 119 -379 250 -469 273 -19 5 -31 19 -46 56 -12 27 -26 49 -33
49 -17 0 -3 -46 34 -110 54 -92 58 -84 -56 -113 -56 -14 -127 -29 -157 -32
-68 -8 -125 -32 -174 -75 l-37 -33 -180 7 c-104 4 -179 3 -179 -2 0 -10 118
-22 212 -22 32 0 58 -4 58 -10 0 -18 -59 -69 -87 -75 -80 -16 -107 -30 -241
-124 -42 -29 -81 -55 -87 -57 -5 -2 -30 15 -55 39 -25 23 -86 79 -136 124 -93
84 -198 189 -243 245 -53 66 -94 108 -103 108 -7 0 -9 -43 -6 -120 2 -66 2
-120 -1 -120 -2 0 -24 21 -48 48 -135 147 -319 322 -337 322 -15 0 15 -36 115
-137z m365 -118 c32 -38 62 -71 66 -73 4 -2 8 -10 8 -18 0 -11 -16 -14 -69
-14 l-68 0 -6 68 c-9 93 -9 128 2 117 4 -6 35 -41 67 -80z m80 -135 c23 0 48
-13 87 -46 30 -25 57 -50 60 -57 2 -7 -9 -36 -24 -65 l-28 -53 -16 31 c-9 17
-47 67 -86 110 -38 43 -69 82 -69 86 0 3 10 4 23 0 12 -3 36 -6 53 -6z m-54
-59 c57 -64 112 -141 99 -141 -5 0 -40 15 -78 33 -62 29 -68 35 -65 60 2 15
-4 37 -12 49 -9 12 -16 28 -16 35 0 26 29 12 72 -36z m56 -153 c39 -23 72 -47
72 -54 0 -7 -15 -57 -34 -111 -19 -54 -37 -113 -41 -130 -4 -18 -10 -35 -14
-38 -4 -2 -20 60 -35 138 -15 78 -34 164 -42 191 -8 27 -14 52 -14 54 0 7 34
-8 108 -50z m-100 -80 c11 -51 25 -120 32 -153 6 -33 14 -68 17 -79 3 -12 -17
-1 -60 34 -74 59 -70 41 -41 186 13 70 23 104 29 104 2 0 12 -42 23 -92z m5
-241 c49 -46 71 -96 58 -130 -7 -19 -26 -124 -47 -256 -3 -18 -7 -31 -9 -29
-2 2 -13 60 -25 128 -11 69 -32 170 -46 224 -36 143 -24 154 69 63z m-20
-1305 c-9 -20 -33 -64 -51 -97 -19 -33 -57 -103 -85 -155 -88 -168 -119 -197
-68 -64 17 44 31 83 31 88 0 5 42 100 93 213 l92 204 3 -75 c2 -57 -2 -86 -15
-114z"/>
<path d="M2697 3403 c-3 -5 6 -76 19 -158 13 -83 33 -213 44 -290 11 -77 24
-169 30 -205 6 -36 15 -112 20 -169 6 -58 15 -110 21 -115 23 -22 0 192 -66
614 -19 118 -37 239 -41 268 -6 50 -17 71 -27 55z"/>
<path d="M93 3135 c-34 -24 -70 -48 -79 -53 -9 -5 -15 -14 -13 -20 4 -11 169
95 169 109 0 15 -13 9 -77 -36z"/>
<path d="M2280 3141 c0 -5 7 -14 15 -21 24 -20 72 -110 100 -190 15 -41 47
-116 70 -166 45 -93 89 -213 82 -220 -2 -3 -38 15 -79 39 -41 25 -84 48 -96
51 -15 5 -25 20 -32 49 -6 23 -18 65 -26 94 -18 67 -18 72 6 66 30 -8 24 13
-8 26 -19 8 -35 27 -47 54 -44 103 -75 164 -95 186 -33 39 -35 16 -2 -36 32
-51 82 -158 82 -177 0 -7 -24 -10 -74 -8 l-73 3 -55 67 c-30 37 -64 82 -77
100 -13 18 -28 31 -35 29 -21 -7 -5 -75 49 -209 5 -13 2 -18 -11 -18 -11 -1
-36 -7 -58 -15 -21 -7 -44 -11 -50 -9 -6 2 -36 43 -66 89 -29 47 -57 85 -62
85 -11 0 -10 -33 0 -45 5 -6 14 -30 21 -55 7 -25 28 -76 46 -115 18 -38 45
-99 60 -135 15 -36 32 -71 37 -77 22 -28 0 -40 -83 -47 -90 -8 -173 -35 -207
-66 -12 -11 -23 -20 -26 -20 -10 0 -105 130 -138 190 -20 36 -60 127 -89 203
-29 75 -58 136 -63 134 -17 -6 -26 -67 -26 -182 1 -60 2 -121 3 -135 1 -15 -4
-26 -14 -28 -20 -4 -59 159 -59 248 0 45 -3 61 -12 58 -17 -6 -23 -202 -8
-285 7 -43 7 -69 0 -89 -9 -22 -8 -31 2 -39 8 -6 20 -51 27 -105 7 -52 21
-116 31 -142 l18 -47 -76 -65 c-88 -75 -88 -75 -145 23 -41 72 -62 133 -81
233 -9 44 -18 83 -20 86 -15 14 -16 -35 -4 -91 13 -57 13 -64 -3 -80 -24 -26
-32 -104 -15 -158 12 -40 25 -70 88 -209 12 -25 29 -64 39 -87 10 -24 23 -43
29 -43 13 0 13 6 -4 43 -51 112 -125 287 -134 317 -11 36 -3 115 12 115 4 0
19 -27 33 -60 14 -33 47 -90 73 -127 63 -87 74 -109 94 -193 19 -77 52 -169
73 -200 8 -12 11 -32 7 -51 -7 -38 18 -213 48 -329 63 -253 105 -365 178 -482
l41 -63 -27 -11 c-44 -16 -57 -7 -89 59 -25 51 -34 61 -50 57 -16 -3 -28 7
-52 43 -57 87 -150 286 -181 387 -78 257 -113 389 -132 513 -7 39 -16 72 -21
72 -30 0 25 -252 128 -590 38 -124 114 -291 175 -382 21 -31 38 -61 38 -66 0
-5 -9 -17 -21 -28 -33 -30 -51 -72 -48 -114 3 -30 -2 -45 -20 -64 -14 -15 -25
-42 -28 -69 -5 -41 -3 -47 25 -67 l30 -22 -41 -52 c-73 -89 -107 -152 -157
-285 -55 -147 -66 -191 -51 -191 6 0 14 12 17 28 18 76 111 290 154 356 64 97
95 129 158 161 75 38 164 44 227 16 27 -12 57 -29 67 -38 32 -29 32 -89 -2
-218 -32 -124 -52 -305 -33 -305 6 0 13 39 17 86 9 117 54 313 94 407 23 54
84 81 182 82 118 0 177 -22 269 -100 59 -50 194 -286 233 -407 12 -38 28 -68
35 -68 7 0 13 4 13 9 0 5 15 18 34 29 49 29 87 64 97 90 5 12 12 22 17 22 15
0 35 -78 29 -114 -7 -44 19 -52 29 -9 7 27 -30 162 -62 227 -18 35 -15 38 16
23 16 -8 35 -36 53 -77 24 -56 27 -74 23 -132 -4 -55 -2 -68 10 -68 27 0 23
129 -6 208 -11 29 -20 55 -20 57 0 3 30 5 68 5 87 1 107 14 94 64 -6 20 -7 38
-3 40 9 6 124 -53 129 -65 6 -14 32 -10 32 4 0 15 -82 69 -129 83 -45 14 -49
29 -11 40 l30 9 5 223 c4 191 2 222 -10 222 -13 0 -15 -32 -15 -211 l0 -210
-29 -10 c-38 -13 -41 -22 -29 -93 5 -32 7 -61 4 -63 -9 -9 -134 -5 -193 7 -57
11 -63 15 -63 37 0 38 -18 63 -46 63 -33 0 -79 -24 -98 -52 -13 -19 -19 -20
-41 -10 -14 7 -37 12 -50 12 -18 0 -31 11 -50 45 -31 51 -112 128 -164 154
-62 31 -133 42 -249 39 l-111 -3 -46 50 c-73 79 -74 85 -21 85 59 0 65 17 39
113 -6 24 -53 22 -103 -4 -48 -25 -43 -29 -110 87 l-41 72 16 67 c44 193 104
300 219 394 37 29 73 63 82 75 13 20 23 21 142 21 123 0 130 -1 170 -28 24
-15 44 -38 48 -53 8 -32 -20 -175 -43 -223 -17 -34 -21 -36 -65 -35 -74 0
-168 54 -261 148 -78 79 -113 96 -64 32 62 -80 130 -135 218 -177 66 -31 103
-35 209 -19 36 5 102 12 147 14 44 2 87 7 93 11 8 5 11 23 7 51 l-4 43 44 17
c43 17 45 16 82 -4 21 -12 46 -22 55 -22 24 0 90 66 143 143 l48 70 3 -99 c4
-137 -5 -218 -29 -249 -19 -23 -22 -24 -47 -11 -60 30 -81 29 -113 -5 -32 -34
-38 -79 -15 -99 16 -13 74 -11 93 3 7 5 18 7 25 5 6 -2 -9 -18 -34 -36 l-46
-31 -41 16 c-40 16 -43 16 -69 -5 -53 -44 -69 -47 -119 -29 -25 9 -49 14 -54
11 -5 -3 -9 -32 -9 -65 0 -87 46 -181 109 -221 44 -29 49 -29 126 -23 94 7
163 35 217 88 21 20 41 49 44 64 10 40 -11 152 -35 184 -12 16 -21 30 -21 33
0 16 43 8 92 -16 90 -44 119 -36 153 45 37 89 17 104 -122 94 -98 -7 -96 -29
-23 168 63 169 90 269 137 500 l38 190 -2 305 c-2 168 -3 369 -3 448 0 107 -3
142 -12 142 -10 0 -12 -88 -11 -412 3 -438 1 -464 -48 -711 -39 -197 -72 -320
-117 -432 l-37 -93 3 181 c4 203 -6 336 -49 637 -30 213 -35 239 -73 355 -13
39 -31 97 -41 130 -9 33 -44 117 -76 187 -32 69 -59 131 -59 137 0 23 -83 188
-107 213 -27 28 -43 35 -43 19z m-233 -220 c28 -31 30 -37 15 -43 -9 -4 -23
-7 -30 -7 -14 -1 -47 65 -57 114 l-6 30 23 -29 c13 -16 37 -45 55 -65z m-714
-71 c14 -36 38 -96 52 -135 15 -38 34 -77 41 -86 8 -8 14 -19 14 -24 0 -16
125 -175 137 -175 7 0 33 13 59 29 53 34 110 48 229 57 47 4 85 10 85 14 0 8
-106 256 -120 283 -7 11 -7 17 0 17 5 0 10 -4 10 -9 0 -25 207 -213 272 -247
25 -13 31 -13 53 2 26 17 31 29 16 38 -11 7 -112 159 -134 203 -15 28 -15 32
-1 37 39 15 60 3 114 -60 104 -124 167 -184 193 -184 25 0 184 -91 204 -117
24 -31 65 -179 76 -274 10 -86 9 -100 -6 -123 -17 -25 -18 -25 -51 -9 -52 24
-66 13 -65 -49 l2 -53 10 48 c6 26 14 47 19 47 16 0 48 -20 48 -30 0 -15 -289
-298 -354 -347 -79 -59 -173 -100 -254 -113 -106 -17 -467 -16 -529 2 -73 21
-165 84 -201 137 -54 81 -89 191 -60 191 14 0 88 70 88 83 0 5 -18 -7 -40 -27
-22 -20 -44 -36 -49 -36 -13 0 -29 22 -36 50 -5 21 0 28 26 44 31 18 33 18 45
1 13 -17 16 -16 56 23 87 84 138 116 226 142 36 11 57 29 35 30 -5 1 -28 5
-53 9 -35 7 -55 5 -97 -11 -55 -20 -118 -75 -129 -112 -9 -31 -34 -56 -56 -56
-10 0 -30 -7 -44 -16 -28 -19 -30 -18 -39 16 -5 22 4 34 75 94 44 37 80 69 80
71 0 1 -6 21 -14 43 -34 96 -58 293 -37 306 4 3 25 -31 45 -77 20 -45 52 -105
70 -133 l34 -51 -39 -24 c-21 -13 -39 -28 -39 -32 0 -5 3 -7 8 -5 4 2 30 14
57 27 28 13 51 25 53 26 2 1 -6 18 -17 36 -22 38 -76 194 -86 252 -5 24 -4 37
4 37 6 0 11 5 11 10 0 6 -6 10 -14 10 -7 0 -16 14 -20 31 -8 42 -8 224 1 232
8 9 7 12 36 -63z m953 -61 c28 -86 37 -129 27 -128 -4 0 -39 36 -78 81 -38 44
-76 86 -82 93 -22 23 -15 26 50 23 l62 -3 21 -66z m-276 36 c0 -8 5 -15 10
-15 6 0 10 -6 10 -12 0 -7 27 -51 60 -97 60 -83 72 -111 47 -111 -13 0 -89 52
-123 83 -66 62 -124 123 -124 130 0 12 61 36 93 37 17 0 27 -5 27 -15z m-788
-190 c3 -14 2 -28 -2 -30 -4 -3 -10 11 -12 29 -4 39 7 40 14 1z m90 -120 c15
-49 26 -91 24 -92 -2 -2 -16 27 -32 64 -15 37 -31 72 -36 78 -13 14 -9 47 4
43 7 -3 25 -44 40 -93z m1356 -545 c25 -185 25 -171 -6 -163 -15 5 -51 8 -80
8 -45 0 -52 3 -52 19 0 11 -5 34 -12 52 -11 31 -10 34 41 90 29 32 60 69 69
82 20 31 26 19 40 -88z m-158 -149 c0 -18 -10 -33 -32 -48 -34 -24 -48 -22
-48 6 0 9 -5 22 -12 29 -9 9 -3 21 27 52 l38 39 14 -26 c7 -14 13 -37 13 -52z
m-100 -47 c26 -67 8 -114 -63 -169 -28 -22 -69 -56 -92 -76 -90 -80 -120 -75
-100 19 17 79 20 84 68 114 23 15 69 52 102 82 33 30 63 55 68 56 4 0 12 -12
17 -26z m252 10 c30 -6 33 -15 43 -125 l6 -66 -60 -89 c-33 -49 -80 -109 -104
-132 -51 -50 -55 -50 -137 18 -25 21 -61 45 -80 55 -40 20 -70 44 -70 56 0 5
34 37 76 71 76 63 104 99 104 138 0 11 4 20 9 20 5 0 16 6 23 14 8 7 32 23 54
35 38 20 55 21 136 5z m-1377 -124 c58 -64 197 -110 338 -110 42 0 77 -3 76
-7 0 -7 -108 -102 -137 -123 -5 -3 -25 -27 -45 -54 -20 -27 -38 -45 -38 -40
-1 5 -2 14 -4 19 -1 6 -3 54 -3 108 -1 57 -6 97 -12 97 -12 0 -14 -246 -2
-254 5 -3 -4 -42 -19 -88 -16 -46 -32 -105 -35 -132 -7 -47 -7 -48 -20 -24 -7
13 -27 79 -43 145 -17 67 -35 133 -41 148 -15 38 -50 247 -50 294 0 46 8 51
35 21z m849 -123 c-6 -71 -6 -74 17 -80 12 -3 37 1 55 9 32 16 34 15 108 -33
41 -26 75 -51 76 -54 1 -20 -280 -93 -296 -76 -3 3 2 37 12 76 18 69 18 72 0
106 -11 20 -35 45 -54 57 l-35 22 24 9 c13 5 38 15 54 22 17 8 33 14 37 14 4
1 5 -32 2 -72z m167 -259 c8 -30 -7 -38 -73 -38 -34 0 -38 3 -38 25 0 19 7 27
33 34 49 15 70 9 78 -21z m-141 -17 c0 -14 -11 -21 -42 -29 -49 -13 -60 -7
-47 26 7 18 16 22 49 22 32 0 40 -4 40 -19z m435 -113 c40 -18 33 -51 -14 -65
-66 -21 -91 4 -55 55 17 25 32 27 69 10z m320 2 c8 -12 -29 -93 -50 -110 -11
-9 -26 -5 -70 20 -47 27 -55 35 -49 53 3 12 13 28 22 35 19 15 138 16 147 2z
m-185 -17 c0 -5 -9 -19 -19 -33 -17 -21 -22 -23 -45 -12 -23 10 -25 15 -16 32
8 14 21 20 45 20 19 0 35 -3 35 -7z m-50 -140 c46 -98 36 -172 -30 -218 -58
-40 -107 -54 -192 -55 -72 0 -80 2 -112 31 -58 51 -106 219 -58 205 71 -20 81
-18 122 17 l40 34 45 -16 44 -15 43 31 c59 43 72 41 98 -14z m-1329 -152 l17
-40 -29 -10 c-26 -9 -29 -14 -29 -56 0 -104 68 -151 124 -84 l26 30 42 -33
c62 -49 100 -71 127 -74 43 -5 53 -12 42 -31 -28 -48 -29 -49 -52 -19 -55 70
-196 96 -301 56 -63 -24 -111 -26 -128 -5 -18 22 -2 72 32 99 29 22 30 26 19
53 -7 17 -9 42 -5 57 6 27 83 110 92 101 3 -3 13 -23 23 -44z m293 -17 c3 -9
6 -27 6 -40 0 -22 -4 -24 -43 -24 -39 0 -67 13 -67 31 0 11 63 49 81 49 9 0
20 -7 23 -16z m-136 -73 c6 -37 -13 -47 -44 -22 -33 26 -47 27 -39 1 6 -20
-21 -90 -35 -90 -4 0 -18 8 -30 18 -17 14 -23 30 -24 63 l-1 44 62 0 c34 1 65
4 70 8 14 14 38 2 41 -22z m52 -39 c0 -4 23 -34 51 -66 49 -54 50 -57 23 -50
-32 8 -95 45 -122 72 -17 16 -16 18 3 34 21 18 45 23 45 10z m910 -337 c8 -9
10 -28 6 -48 -5 -29 -2 -36 24 -55 25 -19 30 -30 30 -63 0 -36 -17 -75 -45
-105 -13 -13 -96 -57 -99 -52 -1 2 -7 15 -13 30 -11 25 -9 29 45 77 68 60 56
69 -14 11 l-49 -41 -23 53 c-30 67 -24 89 42 155 55 55 75 63 96 38z m-169
-45 c23 -13 24 -20 5 -45 -13 -18 -14 -17 -30 13 -9 17 -16 33 -16 37 0 8 20
6 41 -5z"/>
<path d="M2106 2521 c-16 -3 -31 -11 -33 -17 -2 -7 10 -7 42 0 25 6 45 14 45
18 0 9 -11 9 -54 -1z"/>
<path d="M2215 2480 c-70 -7 -147 -31 -172 -51 -18 -15 -17 -59 1 -59 8 0 43
8 78 17 48 13 104 18 230 18 91 0 169 -3 172 -6 10 -10 11 -102 2 -129 -7 -21
-6 -23 5 -12 19 17 18 131 0 165 -28 52 -155 76 -316 57z"/>
<path d="M2330 2388 c0 -28 37 -58 70 -58 22 0 30 -5 30 -18 0 -10 11 -29 25
-42 27 -25 32 -21 14 11 -5 11 -14 17 -19 14 -6 -4 -7 1 -3 11 8 20 -21 44
-53 44 -13 0 -31 12 -43 28 -16 21 -20 23 -21 10z"/>
<path d="M1280 2036 c0 -9 5 -16 10 -16 6 0 10 4 10 9 0 6 -4 13 -10 16 -5 3
-10 -1 -10 -9z"/>
<path d="M1923 1870 c-24 -10 -40 -47 -26 -61 13 -13 84 3 96 22 24 38 -16 61
-70 39z m51 -24 c-5 -14 -54 -29 -64 -19 -8 7 32 33 52 33 11 0 15 -5 12 -14z"/>
<path d="M1505 1491 c-8 -15 4 -89 16 -97 5 -3 9 14 9 38 0 48 -13 78 -25 59z"/>
<path d="M3540 2202 c0 -4 4 -12 10 -18 5 -5 50 -90 99 -189 89 -178 300 -567
334 -615 16 -24 17 -24 17 -3 0 19 -27 72 -195 373 -57 103 -151 287 -166 328
-9 23 -8 24 8 11 10 -7 47 -41 83 -74 101 -93 253 -196 268 -181 7 7 11 3 -68
56 -110 75 -151 108 -261 216 -97 95 -129 118 -129 96z"/>
<path d="M2920 1728 c0 -7 7 -24 16 -36 34 -49 92 -180 99 -222 4 -25 11 -52
15 -60 14 -24 23 13 17 66 -4 38 -2 43 10 32 26 -21 130 -193 192 -315 50
-100 81 -191 106 -310 13 -61 30 -126 38 -145 52 -113 49 -316 -7 -628 -13
-76 -8 -110 18 -110 8 0 11 10 8 29 -2 15 8 113 23 217 35 241 32 354 -13 490
-16 50 -33 115 -36 145 -12 92 -57 218 -131 364 -82 162 -147 260 -194 292
-18 13 -55 58 -82 101 -51 84 -79 116 -79 90z"/>
<path d="M3650 1701 c0 -10 22 -63 49 -117 80 -162 129 -293 145 -389 19 -106
22 -478 6 -602 -32 -240 -64 -386 -114 -510 -21 -51 -29 -83 -21 -83 18 0 62
99 90 206 27 99 65 342 76 484 13 168 6 442 -15 545 -12 56 -79 245 -103 290
-16 28 20 -19 73 -95 32 -47 63 -90 69 -96 6 -6 28 -37 50 -69 26 -37 41 -52
43 -42 2 9 -12 37 -30 63 -18 25 -37 54 -43 63 -5 9 -13 18 -16 21 -6 5 -76
110 -179 268 -53 80 -80 101 -80 63z"/>
<path d="M736 1603 c2 -54 9 -269 14 -478 12 -476 31 -715 70 -893 7 -29 10
-94 8 -143 -2 -66 0 -89 10 -89 19 0 15 169 -8 290 -33 173 -54 519 -65 1070
-5 283 -10 340 -26 340 -4 0 -6 -44 -3 -97z"/>
<path d="M2922 1393 c-41 -88 -70 -179 -59 -189 13 -13 25 9 47 83 12 43 26
80 29 83 10 8 41 80 41 95 0 34 -19 10 -58 -72z"/>
<path d="M3584 1174 c42 -183 22 -820 -34 -1100 -8 -37 -17 -54 -33 -62 -20
-10 -19 -11 14 -11 l36 -1 17 118 c9 64 19 134 22 155 3 20 7 49 9 65 12 87
25 516 20 622 -6 126 -26 223 -47 236 -8 5 -9 -2 -4 -22z"/>
<path d="M2145 154 c-21 -45 -33 -154 -16 -154 6 0 11 14 11 31 0 37 19 120
32 136 5 7 5 14 0 17 -6 3 -18 -10 -27 -30z"/>
<path d="M3622 60 c-14 -47 -15 -60 -4 -60 9 0 32 66 32 89 0 25 -16 9 -28
-29z"/>
</g>
</svg>
